<svg id="Poski" xmlns="http://www.w3.org/2000/svg" x="0px" y="0px" viewBox="0 0 250 250">
<style type="text/css">
	.st0{fill:#ed7237;}
</style>
<path class="st0" d="M138.87,236.13h-27.74V166.7H125c22.99,0,41.68-18.7,41.68-41.69c0-22.99-18.7-41.69-41.68-41.69
	c-22.99,0-41.7,18.7-41.7,41.69c0,6.63,1.54,13.04,4.49,18.83l-19.51,21.22c-8.31-11.75-12.71-25.6-12.72-40.04
	c0-38.3,31.15-69.45,69.44-69.45c38.28,0,69.43,31.15,69.43,69.44c0,33.53-23.9,61.59-55.56,68.04V236.13z"/>
<path class="st0" d="M244.38,88.22l0.06-0.02c-0.21-0.67-0.46-1.34-0.68-2.01c-0.29-0.88-0.5-1.78-0.81-2.66l-0.08,0.03
	c-2.51-7.18-5.67-14.24-9.61-21.06c-3.79-6.57-8.22-12.65-13.1-18.33l-18.9,20.53c2.93,3.67,5.6,7.56,7.98,11.67
	c3.82,6.61,6.68,13.52,8.8,20.53l0.02,0c2.74,9.08,4.21,18.51,4.21,28.1c0,53.62-43.63,97.26-97.25,97.26
	c-53.63,0-97.26-43.63-97.26-97.26c0-53.63,43.63-97.26,97.26-97.26c19.69,0,38.41,5.94,54.34,16.78l19.06-20.7
	C177.2,8.36,151.75,0,125,0C56.08,0,0,56.08,0,125c0,68.92,56.08,125,125,125c68.92,0,125-56.08,125-125
	C250,112.44,248.04,100.11,244.38,88.22z"/>
</svg>
